<svg width="27" height="27" viewBox="0 0 27 27" fill="none" xmlns="http://www.w3.org/2000/svg">
<path d="M13.5 7.01172C12.2891 7.01172 11.1562 7.32422 10.1016 7.94922C9.08594 8.53516 8.26562 9.35547 7.64062 10.4102C7.05469 11.4258 6.76172 12.5391 6.76172 13.75C6.76172 14.9609 7.05469 16.0938 7.64062 17.1484C8.26562 18.1641 9.08594 18.9844 10.1016 19.6094C11.1562 20.1953 12.2891 20.4883 13.5 20.4883C14.7109 20.4883 15.8242 20.1953 16.8398 19.6094C17.8945 18.9844 18.7148 18.1641 19.3008 17.1484C19.9258 16.0938 20.2383 14.9609 20.2383 13.75C20.2383 12.5391 19.9258 11.4258 19.3008 10.4102C18.7148 9.35547 17.8945 8.53516 16.8398 7.94922C15.8242 7.32422 14.7109 7.01172 13.5 7.01172ZM13.5 18.1445C12.2891 18.1445 11.2539 17.7148 10.3945 16.8555C9.53516 15.9961 9.10547 14.9609 9.10547 13.75C9.10547 12.5391 9.53516 11.5039 10.3945 10.6445C11.2539 9.78516 12.2891 9.35547 13.5 9.35547C14.7109 9.35547 15.7461 9.78516 16.6055 10.6445C17.4648 11.5039 17.8945 12.5391 17.8945 13.75C17.8945 14.9609 17.4648 15.9961 16.6055 16.8555C15.7461 17.7148 14.7109 18.1445 13.5 18.1445ZM22.1133 6.71875C22.0742 7.14844 21.8984 7.51953 21.5859 7.83203C21.3125 8.14453 20.9609 8.30078 20.5312 8.30078C20.1016 8.30078 19.7305 8.14453 19.418 7.83203C19.1055 7.51953 18.9492 7.14844 18.9492 6.71875C18.9492 6.28906 19.1055 5.91797 19.418 5.60547C19.7305 5.29297 20.1016 5.13672 20.5312 5.13672C20.9609 5.13672 21.332 5.29297 21.6445 5.60547C21.957 5.91797 22.1133 6.28906 22.1133 6.71875ZM26.5664 8.30078C26.4883 7.16797 26.3125 6.19141 26.0391 5.37109C25.6875 4.39453 25.1406 3.55469 24.3984 2.85156C23.6953 2.10937 22.8555 1.5625 21.8789 1.21094C21.0586 0.9375 20.082 0.78125 18.9492 0.742188C17.8555 0.664063 16.0391 0.625 13.5 0.625C10.9609 0.625 9.125 0.664063 7.99219 0.742188C6.89844 0.78125 5.94141 0.9375 5.12109 1.21094C4.14453 1.5625 3.28516 2.10937 2.54297 2.85156C1.83984 3.55469 1.3125 4.39453 0.960938 5.37109C0.6875 6.19141 0.511719 7.16797 0.433594 8.30078C0.394531 9.39453 0.375 11.2109 0.375 13.75C0.375 16.2891 0.394531 18.125 0.433594 19.2578C0.511719 20.3516 0.6875 21.3086 0.960938 22.1289C1.3125 23.1055 1.83984 23.9648 2.54297 24.707C3.28516 25.4102 4.14453 25.918 5.12109 26.2305C5.94141 26.543 6.89844 26.7188 7.99219 26.7578C9.125 26.8359 10.9609 26.875 13.5 26.875C16.0391 26.875 17.8555 26.8359 18.9492 26.7578C20.082 26.7188 21.0586 26.5625 21.8789 26.2891C22.8555 25.9375 23.6953 25.4102 24.3984 24.707C25.1406 23.9648 25.6875 23.1055 26.0391 22.1289C26.3125 21.3086 26.4688 20.3516 26.5078 19.2578C26.5859 18.125 26.625 16.2891 26.625 13.75C26.625 11.2109 26.6055 9.39453 26.5664 8.30078ZM23.7539 21.4844C23.2852 22.6562 22.4453 23.4961 21.2344 24.0039C20.6094 24.2383 19.5547 24.3945 18.0703 24.4727C17.25 24.5117 16.0391 24.5312 14.4375 24.5312H12.5625C11 24.5312 9.78906 24.5117 8.92969 24.4727C7.48438 24.3945 6.42969 24.2383 5.76562 24.0039C4.59375 23.5352 3.75391 22.6953 3.24609 21.4844C3.01172 20.8203 2.85547 19.7656 2.77734 18.3203C2.73828 17.4609 2.71875 16.25 2.71875 14.6875V12.8125C2.71875 11.25 2.73828 10.0391 2.77734 9.17969C2.85547 7.69531 3.01172 6.64063 3.24609 6.01562C3.71484 4.80469 4.55469 3.96484 5.76562 3.49609C6.42969 3.26172 7.48438 3.10547 8.92969 3.02734C9.78906 2.98828 11 2.96875 12.5625 2.96875H14.4375C16 2.96875 17.2109 2.98828 18.0703 3.02734C19.5547 3.10547 20.6094 3.26172 21.2344 3.49609C22.4453 3.96484 23.2852 4.80469 23.7539 6.01562C23.9883 6.64063 24.1445 7.69531 24.2227 9.17969C24.2617 10 24.2812 11.2109 24.2812 12.8125V14.6875C24.2812 16.25 24.2617 17.4609 24.2227 18.3203C24.1445 19.7656 23.9883 20.8203 23.7539 21.4844Z" fill="white"/>
</svg>
