<svg width="121" height="48" viewBox="0 0 121 48" fill="none" xmlns="http://www.w3.org/2000/svg">
<path fill-rule="evenodd" clip-rule="evenodd" d="M25.6788 22.2974L8.68359 47.9071L36.1331 20.2507L25.6788 22.2974Z" fill="#FF3300"/>
<path fill-rule="evenodd" clip-rule="evenodd" d="M40.0179 0L27.25 19.2544L37.1615 16.8846L40.0179 0Z" fill="#FF3300"/>
<path fill-rule="evenodd" clip-rule="evenodd" d="M4.25595 26.7946L8.68329 47.9071L0 23.8862L4.25595 26.7946Z" fill="#FF3300"/>
<path fill-rule="evenodd" clip-rule="evenodd" d="M1.05735 12.6299L4.02794 24.4249L0.286133 22.2436L1.05735 12.6299Z" fill="#FF3300"/>
<path fill-rule="evenodd" clip-rule="evenodd" d="M40.0179 0L27.25 19.2544L33.1912 13.8147L40.0179 0Z" fill="#D22A00"/>
<path fill-rule="evenodd" clip-rule="evenodd" d="M25.6788 22.2975L8.68359 47.9073L28.2496 21.7859L25.6788 22.2975Z" fill="#D22A00"/>
<path fill-rule="evenodd" clip-rule="evenodd" d="M1.05735 12.6299L1.34298 13.7609L1.02878 22.6745L0.286133 22.2436L1.05735 12.6299Z" fill="#D22A00"/>
<path fill-rule="evenodd" clip-rule="evenodd" d="M1.42817 25.6905L8.68329 47.9071L0 23.8862L1.42817 25.6905Z" fill="#D22A00"/>
<rect x="49.4688" y="34.5601" width="43.9831" height="2.68" fill="#E6E6E6"/>
<path d="M49.4688 11.0812H58.9451V13.3581H51.7774V17.5194H58.9451V19.7702H51.8043V27.7526H49.4688V11.0812ZM60.5961 22.3089C60.5961 20.8345 61.1911 19.5259 62.3813 18.3831C63.5804 17.2315 64.9539 16.6558 66.502 16.6558C68.0948 16.6558 69.4863 17.2228 70.6764 18.3569C71.8666 19.4823 72.4616 20.7996 72.4616 22.3089C72.4616 23.8269 71.8755 25.166 70.7033 26.3263C69.54 27.4778 68.1933 28.0536 66.6631 28.0536C65.0255 28.0536 63.6027 27.4822 62.3947 26.3394C61.1956 25.1965 60.5961 23.853 60.5961 22.3089ZM70.2066 22.3089C70.2066 21.3929 69.8487 20.599 69.1329 19.9273C68.417 19.2468 67.5669 18.9065 66.5825 18.9065C65.5714 18.9065 64.6989 19.2511 63.9651 19.9403C63.2403 20.6208 62.8779 21.4365 62.8779 22.3874C62.8779 23.2947 63.2448 24.0886 63.9786 24.769C64.7213 25.4495 65.5893 25.7898 66.5825 25.7898C67.549 25.7898 68.3946 25.4408 69.1194 24.7429C69.8442 24.045 70.2066 23.2336 70.2066 22.3089ZM74.1395 16.9567H76.9715L79.4415 20.0319L81.8575 16.9567H84.6628L80.8104 21.8247L85.4682 27.7526H82.6896L79.4145 23.6306L76.1125 27.7526H73.361L78.0455 21.8247L74.1395 16.9567ZM94.4746 10.4399L102.555 27.7526H100.112L98.1123 23.4866H90.8507L88.9044 27.7526H86.4749L94.4746 10.4399ZM94.4746 15.6612L91.7229 21.5892H97.2263L94.4746 15.6612ZM107.079 16.9567V19.1814C107.598 18.2915 108.103 17.6503 108.595 17.2577C109.096 16.8564 109.745 16.6558 110.542 16.6558C110.765 16.6558 111.087 16.7081 111.508 16.8128L110.796 19.0898C110.349 19.0025 110.054 18.9589 109.911 18.9589C109.123 18.9589 108.461 19.2293 107.924 19.7702C107.396 20.3024 107.132 20.9698 107.132 21.7724V27.7526H104.797V16.9567H107.079ZM114.958 13.8161H117.293V16.9567H119.602V19.0374H117.293V27.7526H114.958V19.0374H113.119V16.9306H114.958V13.8161Z" fill="#E6E6E6"/>
<path d="M99.223 34.8687L98.6002 35.4026C98.4391 35.2909 98.2995 35.2072 98.1814 35.1514C98.0633 35.092 97.9237 35.0624 97.7626 35.0624C97.3832 35.0624 97.1935 35.1985 97.1935 35.4707C97.1935 35.6661 97.4333 35.8563 97.9129 36.0412C98.3961 36.2227 98.7433 36.4233 98.9545 36.6432C99.1657 36.863 99.2713 37.1282 99.2713 37.4388C99.2713 37.8017 99.1192 38.1193 98.8149 38.3914C98.5107 38.6601 98.1527 38.7945 97.7411 38.7945C97.1147 38.7945 96.6011 38.5118 96.2002 37.9465L96.9358 37.6011C97.1935 37.8453 97.4619 37.9675 97.7411 37.9675C97.9344 37.9675 98.1026 37.9169 98.2458 37.8157C98.3925 37.711 98.4659 37.5906 98.4659 37.4545C98.4659 37.2137 98.2118 36.9974 97.7035 36.8054C97.1953 36.6135 96.8427 36.4198 96.6458 36.2244C96.4525 36.0255 96.3559 35.7812 96.3559 35.4916C96.3559 35.1322 96.4937 34.8338 96.7693 34.5965C97.0485 34.3557 97.3975 34.2354 97.8163 34.2354C98.2351 34.2354 98.704 34.4465 99.223 34.8687ZM100.512 33.0995H101.446V34.3557H102.369V35.188H101.446V38.6741H100.512V35.188H99.776V34.3453H100.512V33.0995ZM103.035 34.3557H103.969V36.7897C103.969 37.54 104.307 37.9151 104.984 37.9151C105.285 37.9151 105.523 37.8157 105.698 37.6168C105.873 37.4144 105.961 37.1387 105.961 36.7897V34.3557H106.885V36.9363C106.885 37.4772 106.704 37.9221 106.342 38.2711C105.981 38.62 105.519 38.7945 104.957 38.7945C104.384 38.7945 103.921 38.62 103.567 38.2711C103.212 37.9221 103.035 37.4667 103.035 36.9049V34.3557ZM111.727 31.8799H112.651V38.6741H111.738V37.7738C111.298 38.4543 110.722 38.7945 110.009 38.7945C109.433 38.7945 108.939 38.5694 108.527 38.1193C108.116 37.6691 107.91 37.1282 107.91 36.4966C107.91 35.8789 108.119 35.3485 108.538 34.9054C108.957 34.4587 109.456 34.2354 110.036 34.2354C110.383 34.2354 110.707 34.3296 111.008 34.518C111.309 34.7064 111.548 34.9525 111.727 35.2561V31.8799ZM111.835 36.5071C111.835 36.1197 111.69 35.7847 111.4 35.5021C111.11 35.2159 110.765 35.0729 110.364 35.0729C109.948 35.0729 109.596 35.2124 109.306 35.4916C109.02 35.7673 108.876 36.1058 108.876 36.5071C108.876 36.8909 109.023 37.2277 109.317 37.5173C109.61 37.8034 109.952 37.9465 110.342 37.9465C110.757 37.9465 111.11 37.8069 111.4 37.5278C111.69 37.2486 111.835 36.9084 111.835 36.5071ZM113.913 32.9372C113.913 32.7488 113.984 32.5865 114.127 32.4504C114.271 32.3108 114.441 32.2411 114.637 32.2411C114.831 32.2411 114.997 32.3108 115.137 32.4504C115.28 32.5865 115.352 32.7488 115.352 32.9372C115.352 33.1292 115.28 33.2932 115.137 33.4293C114.997 33.5654 114.831 33.6334 114.637 33.6334C114.441 33.6334 114.271 33.5654 114.127 33.4293C113.984 33.2932 113.913 33.1292 113.913 32.9372ZM114.176 34.3557H115.099V38.6741H114.176V34.3557ZM116.254 36.4966C116.254 35.9069 116.492 35.3834 116.968 34.9263C117.447 34.4657 117.997 34.2354 118.616 34.2354C119.253 34.2354 119.81 34.4622 120.286 34.9158C120.762 35.366 121 35.8929 121 36.4966C121 37.1038 120.765 37.6394 120.296 38.1036C119.831 38.5642 119.292 38.7945 118.68 38.7945C118.025 38.7945 117.456 38.5659 116.973 38.1088C116.493 37.6517 116.254 37.1143 116.254 36.4966ZM120.098 36.4966C120.098 36.1302 119.955 35.8126 119.668 35.5439C119.382 35.2718 119.042 35.1357 118.648 35.1357C118.244 35.1357 117.895 35.2735 117.601 35.5492C117.311 35.8214 117.166 36.1476 117.166 36.528C117.166 36.8909 117.313 37.2085 117.607 37.4807C117.904 37.7529 118.251 37.8889 118.648 37.8889C119.035 37.8889 119.373 37.7494 119.663 37.4702C119.953 37.191 120.098 36.8665 120.098 36.4966Z" fill="#E6E6E6"/>
</svg>
