<svg width="27" height="23" viewBox="0 0 27 23" fill="none" xmlns="http://www.w3.org/2000/svg">
<path d="M26.5664 2.55078L22.582 21.1836C22.4258 21.8477 22.1523 22.2773 21.7617 22.4727C21.4102 22.6289 20.9609 22.5508 20.4141 22.2383L14.3789 17.7852L11.4492 20.5977C11.2539 20.793 11.0977 20.9297 10.9805 21.0078C10.7852 21.125 10.5312 21.1836 10.2188 21.1836L10.6875 15.0312L21.8789 4.89453C22.0352 4.77734 22.0742 4.67969 21.9961 4.60156C21.957 4.48438 21.8398 4.44531 21.6445 4.48438C21.4883 4.48438 21.3125 4.54297 21.1172 4.66016L7.28906 13.3906L1.3125 11.5156C0.648438 11.3203 0.335938 11.0273 0.375 10.6367C0.414062 10.2461 0.824219 9.89453 1.60547 9.58203L24.8672 0.617188C25.4531 0.421875 25.9219 0.5 26.2734 0.851562C26.625 1.16406 26.7227 1.73047 26.5664 2.55078Z" fill="white"/>
</svg>
